<?xml version="1.0" encoding="UTF-8"?>
<svg id="Layer_1" data-name="Layer 1" xmlns="http://www.w3.org/2000/svg" viewBox="0 0 50 52.72">
  <defs>
    <style>
      .cls-1 {
        fill: #052266;
      }
    </style>
  </defs>
  <path class="cls-1" d="m26.79.06c.38.35.89.22,1.32.29,1.63.26,3.18.72,4.7,1.34,2.12.87,4.02,2.07,5.69,3.62,2.61,2.44,4.54,5.3,5.59,8.76.4,1.33.64,2.67.88,4.01.08.45-.01.92.02,1.38.15,2.11-.17,4.16-.72,6.18-.22.81-.42,1.67-.79,2.39-.84,1.6-1.65,3.24-2.87,4.61-.51.57-.98,1.17-1.52,1.7-.2.19-.16.4-.16.61,0,3.6,0,7.19,0,10.79v.54h-6.17c0,.72-.01,1.4,0,2.08,0,.31-.09.49-.38.63-2.39,1.18-4.77,2.37-7.14,3.58-.25.13-.41.04-.6-.06-2.42-1.22-4.85-2.45-7.3-3.69v-2.52h-6.17c0-.22,0-.4,0-.59,0-3.51,0-7.02.01-10.53,0-.49-.14-.84-.5-1.15-.94-.83-1.73-1.82-2.4-2.86-1.19-1.83-2.1-3.82-2.65-5.95-.26-.98-.41-1.98-.53-2.99-.16-1.31-.12-2.63-.07-3.93.06-1.32.4-2.61.75-3.9.54-1.97,1.42-3.78,2.54-5.45,1.2-1.77,2.67-3.31,4.35-4.65,1.58-1.25,3.3-2.22,5.17-2.92,1.28-.48,2.58-.91,3.96-1.06.46-.05.95-.05,1.38-.29h2.88c.1.12.21.17.31,0h.41ZM8.09,20.28c-.12,1.17.1,2.5.42,3.8.35,1.43.86,2.81,1.61,4.09.42.73.87,1.42,1.42,2.08.38.47.72,1,1.13,1.46,1.22,1.36,2.72,2.36,4.28,3.3.94.57,1.96.94,2.99,1.29,1.18.4,2.41.67,3.65.73,1.5.07,3,0,4.5-.27,2.05-.37,3.93-1.12,5.7-2.18,2.16-1.29,3.95-2.99,5.32-5.1.63-.97,1.43-1.9,1.47-3.16.57-.43.59-1.11.75-1.71.3-1.1.55-2.21.57-3.37.01-.77.05-1.54,0-2.32-.06-1.19-.27-2.35-.61-3.48-.38-1.27-.91-2.47-1.54-3.65-1.08-2.02-2.6-3.63-4.35-5.06-1.09-.89-2.31-1.54-3.58-2.13-1.4-.64-2.87-1.01-4.36-1.25-1.11-.17-2.23-.19-3.36-.13-.94.05-1.87.13-2.79.33-2.89.65-5.44,1.96-7.64,3.93-1.6,1.42-2.88,3.11-3.83,5.03-1.18,2.38-1.84,4.89-1.75,7.76Zm12.33,19.38c0,2.33,0,4.63,0,6.92,0,.25.08.38.31.5,1.27.64,2.54,1.28,3.79,1.95.3.16.53.17.83.01,1.43-.73,2.87-1.44,4.3-2.16v-7.28c-3.08.73-6.14.75-9.23.06Zm15.39,3.55v-6.13c-.09,0-.18-.03-.22,0-.8.55-1.67,1-2.56,1.37-.23.1-.28.24-.28.47.01.72,0,1.44,0,2.15,0,.71,0,1.42,0,2.13h3.06Zm-21.53-6.2v6.19h3.04v-4.56c-1.01-.51-2.05-.95-3.04-1.63Z"/>
  <path class="cls-1" d="m32.78,30.88h-15.38c-.12-.1-.06-.25-.06-.38,0-2.71-.06-5.41.02-8.12.05-1.45.62-2.77,1.55-3.92.32-.4.69-.75,1.03-1.13.22-.25.45-.27.71-.1.99.66,2.08,1.14,3.25,1.29.89.11,1.81.13,2.72-.12.98-.26,1.9-.66,2.76-1.18.32-.19.51-.1.78.19.66.7,1.26,1.44,1.72,2.28.51.93.67,1.94.76,2.98.24,2.71,0,5.43.12,8.19Zm-12.36-3.09h9.25c0-1.42,0-2.82,0-4.22,0-.78-.2-1.5-.44-2.24-.15-.46-.37-.44-.69-.27-.82.43-1.74.4-2.61.54-.95.16-1.94.05-2.91-.13-.7-.13-1.37-.32-2.03-.56-.34.54-.56,1.11-.57,1.7-.03,1.71-.01,3.42-.01,5.17Z"/>
  <path class="cls-1" d="m20.42,10.84c-.07-2.65,2.11-4.56,4.42-4.58,3.04-.03,4.81,2.09,4.8,4.62-.01,2.68-2.06,4.45-4.42,4.61-2.66.18-4.97-2.3-4.79-4.64Zm4.62-1.43c-.99,0-1.53.51-1.53,1.43,0,.9.62,1.55,1.48,1.55.83,0,1.64-.75,1.59-1.55-.04-.75-.66-1.6-1.54-1.43Z"/>
</svg>